<svg xmlns="http://www.w3.org/2000/svg" viewBox="0 0 980.17 420.44"><title>Asset 2</title><g id="Layer_2" data-name="Layer 2"><g id="Layer_1-2" data-name="Layer 1"><path d="M962.19,12.66s.87.54,2.06,1.21c0,0,2.37,1.33,5,2.55l1.07.49c1.23.54,7,2.39,9.35,4.12a1.15,1.15,0,0,1,0,1.85C966.24,32.62,804.53,106.54,614.94,192c-1.23-2.52-2.46-5-3.68-7.55C852.55,63.69,960,11.32,962.19,12.66Z" style="fill:#b3b3b3"/><path d="M611.26,184.43l-3.66-7.51C777.35,87.91,953.49-3.46,955.31.1c.16.31-.8,1.73-.47,4,.73,5.21,6.91,7.55,7.35,8.52C965.07,19,784.47,104.24,611.26,184.43Z" style="fill:#b3b3b3"/><path d="M19.8,321.27l3,8.73a232.18,232.18,0,0,0,38,69.16l2.48,3.11c14.56,26.64,137.24,23.42,291.4-12.57S620,301.32,621.47,272L624,259.27a202.33,202.33,0,0,0,2.59-60.55l-2-18.61" style="fill:#b3b3b3"/><ellipse cx="322.29" cy="251.18" rx="310.5" ry="58.5" transform="translate(-48.66 79.84) rotate(-13.14)" style="fill:#b3b3b3"/><path d="M61.13,331.14c82.84,7.36,212-15.6,212-15.6s162.5-29.72,246.34-70.86c9.33-4.58,37.5-18.42,36-22.4-4.76-1.75-25.66,2.28-34,4.48-24.62,6.5-35.74,10.62-53.85,15.65C388,264.56,366,274,326,282.65c-27.21,5.91-94.46,20.56-98.1,9.88-3-8.9,35.94-34.38,70.8-47.67,49.5-18.87,128.77-29,145.78-30.94,0,0,53.64-4.35,53.48-6.65,0-.52-1.31-1.54-13.55-2.67-47.24-4.38-92,2-92,2s-64.6,4.81-167.43,35C150.52,261,103.13,282.31,59.05,309,42.6,319,42.31,323,42.7,324.67,43.93,330.06,58.29,331,61.13,331.14Z" style="fill:gray"/></g><g id="Layer_3" data-name="Layer 3"><path d="M49.2,357C3.16,312.7-11,240.76,8.51,182.71,31.9,113,104.27,61.43,128.09,74.7c9.8,5.46,10.56,21.44,10.94,29.28,2.52,52.52-56.8,77.68-46.64,112.55,2.34,8,8.53,17.2,16.69,18.69,10.63,1.95,22.84-9.49,28-20.9,5.52-12.26-.3-17.42,4.41-33.89,1.12-3.9,7.4-25.86,19.35-27.11,9.84-1,20.15,12.37,24.12,24.15,6,17.84-4.17,27.1-1.91,44.6,2.76,21.43,21.61,35.32,34,44.44,23.08,17,33.32,24.9,77.94,26,90.53,2.14,169.26-37.34,178.63-22.19,7.49,12.11-27,50.85-32.91,57-83.55,86.65-221,76.92-256.83,74.32C136.46,398.15,88.3,394.66,49.2,357Z" style="fill:#a4b4ca"/></g><g id="Layer_4" data-name="Layer 4"><path d="M191.11,81.61c3.62-12.09,2.78-15.93,1.07-17-2.3-1.42-5.64,2.56-10,1.29-4.21-1.23-7.29-6.71-7.3-11.2,0-9.07,12.4-17.12,23.34-18.49,11.65-1.46,25.91,4.13,27.72,12.82.65,3.15-.17,7.48-2.95,10-5.09,4.57-13.16-.29-16.21,3.09-1.66,1.84-2,6.35,5,18.58Z" style="fill:#a4b4ca"/><path d="M236.9,176.85c-5.81-5.78-8.27-6.48-9.4-5.82-1.52.88-.26,4-2.34,6.13s-6.07,2.12-8.65.75c-5.19-2.77-6-12.35-3.43-19,2.74-7.12,10.32-13.57,15.84-11.94a7.13,7.13,0,0,1,4.81,4.74c1.05,4.32-4.21,7.45-3.2,10.23.54,1.52,3,3.11,12.16,2.85Z" style="fill:#a4b4ca"/><path d="M274.51,102.76c1.19,0,29.67-.57,46.14,20.73a48.44,48.44,0,0,1,6.07,10.28l10.9,3.52.42,3.49-12.61-3.19a7.32,7.32,0,0,1-3.3,4.4c-4.64,2.39-11.62-2.7-24.47-10.85-10.61-6.73-15.91-10.1-18.22-11.12-20.17-8.91-39,2.79-40.22.1S253.21,103.49,274.51,102.76Z" style="fill:#a4b4ca"/><path d="M307.8,72c-2.46-.66-23.41-6.54-25-20.56-1.19-10.3,8.73-19,10.41-20.41,10.08-8.52,18.34-4.12,27.28-13.11,6.47-6.52,7.82-14.55,9.64-14s-.61,6.93,1.76,14.76c3,9.9,10,10.39,14,19.19,3.62,7.84,3.56,19.26-2.14,26.91C333.46,78.53,310.33,72.68,307.8,72Z" style="fill:#a4b4ca"/></g><g id="Layer_2-2" data-name="Layer 2"><path d="M624,181c7.34,31.46-120.81,88.53-287.8,127.51S27.32,353.47,20,322l2.46,8.6a232,232,0,0,0,38,69.16l2.47,3.11c14.57,26.64,137.25,23.42,291.4-12.57S619.61,301.92,621.1,272.56l2.48-12.69a202.33,202.33,0,0,0,2.6-60.55Z" style="fill:#999"/></g></g></svg>